# xmcd
#
# Track frame offsets: 
#        150
#        15896
#        29161
#        41192
#        48340
#        58505
#        72005
#        85930
#        96315
#        105535
#
# Disc length: 1534 seconds
#
# Revision: 4
# Processed by: cddbd v1.4PL0 Copyright (c) Steve Scherf et al.
# Submitted via: ExactAudioCopy v0.90b3
#
DISCID=7d05fc0a
DTITLE=Red Sovine - Phantom 309
DYEAR=1900
DGENRE=Country
TTITLE0=Phantom 309
TTITLE1=Honky Tonk Toys
TTITLE2=Old Pipeliner
TTITLE3=Pay Load Daddy
TTITLE4=Mr. F.C.C.
TTITLE5=Sad Violins
TTITLE6=Does Steppin' Out Mean Daddy Took A Walk
TTITLE7=1460 Elder Street
TTITLE8=Big Ben Dorsey The Third
TTITLE9=Ten Days Out, Two Days In
EXTD=
EXTT0=
EXTT1=
EXTT2=
EXTT3=
EXTT4=
EXTT5=
EXTT6=
EXTT7=
EXTT8=
EXTT9=
PLAYORDER=
